<?xml version="1.0" encoding="UTF-8"?>
<svg id="Calque_1" data-name="Calque 1" xmlns="http://www.w3.org/2000/svg" viewBox="0 0 40.62 15.42">
  <defs>
    <style>
      .cls-1 {
        fill: #ffffff;
      }
    </style>
  </defs>
  <path class="cls-1" d="m7.77,9.36v-.14c.37-.02.68-.1.94-.23s.42-.3.51-.48c.05-.11.09-.25.12-.42.03-.17.04-.34.05-.51.02-.57.03-1.12.03-1.64V.64c-.29.64-.55,1.23-.79,1.77s-.47,1.06-.71,1.57-.47,1.03-.71,1.57-.5,1.12-.79,1.76c-.04.09-.1.22-.18.41-.08.19-.16.38-.23.57-.08.19-.15.37-.22.53-.07.16-.11.27-.13.32h-.08c-.28-.64-.55-1.28-.83-1.91s-.54-1.24-.8-1.83c-.26-.58-.5-1.13-.73-1.64-.23-.51-.43-.97-.61-1.37-.18-.4-.33-.73-.45-1-.12-.27-.2-.45-.24-.55,0,.57,0,1.08,0,1.51,0,.44,0,.87-.01,1.3,0,.43,0,.88,0,1.36v1.66c0,.41.01.76.04,1.06.03.3.09.55.2.75.1.2.26.36.47.48s.5.2.88.25v.13H.09v-.13c.3-.06.55-.15.74-.27s.34-.28.46-.49c.11-.21.19-.47.25-.77.05-.31.08-.68.09-1.12.02-.37.03-.81.04-1.32s.01-1.05.01-1.63v-1.64c0-.17,0-.39-.01-.64,0-.24-.06-.44-.16-.59-.1-.15-.21-.27-.34-.36-.13-.09-.27-.15-.42-.19s-.27-.07-.38-.08v-.13h2.77l3.11,7.07c.38-.82.75-1.64,1.12-2.46.36-.81.69-1.55.98-2.21.29-.66.53-1.21.71-1.64.19-.44.29-.69.32-.76h2.77v.13c-.36,0-.63.08-.81.22-.19.14-.31.3-.38.49-.05.15-.09.38-.1.69-.02.31-.03.62-.04.92,0,.42-.01.82-.01,1.21v2.59c0,.46,0,.95.01,1.46,0,.17.01.33.03.5.02.17.06.3.11.4,0,.02.04.06.1.12.06.07.14.13.24.21.1.07.23.14.39.2.16.06.34.09.55.1v.13h-4.46Z"/>
  <path class="cls-1" d="m18.07,8.57c-.07.16-.16.3-.27.42-.11.12-.24.22-.4.29-.15.07-.32.1-.5.1-.29,0-.56-.09-.79-.26-.23-.17-.34-.48-.34-.91h-.03c-.07.1-.16.23-.28.36-.12.14-.26.27-.42.39-.16.12-.34.22-.53.29s-.41.11-.64.11c-.14,0-.28-.02-.42-.06s-.27-.11-.39-.21-.21-.23-.29-.38c-.07-.16-.11-.35-.11-.57,0-.24.1-.48.29-.7s.44-.43.72-.61c.29-.18.54-.34.76-.47.22-.13.41-.24.58-.33.16-.09.31-.17.44-.23.13-.07.23-.12.32-.18v-1.34s-.02-.06-.05-.12c-.03-.07-.08-.13-.16-.2s-.18-.13-.31-.19c-.13-.06-.3-.08-.51-.08-.14,0-.27.02-.41.07-.13.05-.25.11-.36.18-.1.07-.19.15-.25.22-.06.07-.09.14-.09.19v.58c0,.12-.06.23-.19.32-.13.1-.26.14-.41.14-.14,0-.26-.05-.36-.15-.1-.1-.15-.21-.15-.34,0-.1.03-.2.08-.29.05-.09.12-.16.19-.23.08-.07.16-.13.25-.18.09-.05.17-.1.24-.14.23-.13.46-.26.69-.38.23-.12.46-.23.67-.31.21-.09.41-.16.58-.21s.32-.08.44-.08c.23,0,.44.06.64.18.2.12.34.26.43.44.03.06.06.17.06.32,0,.15.01.3.01.45,0,.31,0,.59,0,.85,0,.25,0,.49,0,.73s0,.47,0,.72,0,.52,0,.81c0,.39.07.65.2.77.13.13.29.19.46.19.2,0,.35-.04.44-.12.1-.08.16-.19.19-.32h.08c0,.17-.05.33-.12.48Zm-2.3-2.74c-.16.11-.35.23-.58.36-.23.13-.46.26-.68.41-.22.15-.41.31-.57.49-.16.18-.24.38-.24.6s.08.43.23.61c.16.18.36.27.61.27.23,0,.42-.03.6-.08.17-.05.33-.15.48-.3.1-.1.16-.22.16-.36v-2Z"/>
  <path class="cls-1" d="m22.57,4.25c-.11.12-.24.19-.39.19-.14,0-.25-.02-.33-.07-.08-.05-.15-.1-.21-.16s-.13-.11-.19-.16c-.07-.05-.17-.07-.29-.07-.1,0-.21.04-.31.11-.1.07-.19.17-.28.28-.09.11-.17.24-.23.38-.07.14-.13.28-.18.41v3.74c.03.08.08.14.17.18.09.04.18.07.29.09.11.02.22.03.34.03.12,0,.22.01.31.03v.13h-2.91v-.13c.2-.02.37-.06.51-.12s.21-.16.21-.3v-4.39c0-.07,0-.12-.02-.16-.01-.04-.05-.07-.11-.12-.08-.04-.17-.1-.27-.16-.1-.06-.21-.12-.31-.16v-.08l1.7-.66h.08l-.03,1.81h.03c.04-.1.11-.26.21-.46s.22-.4.36-.6c.15-.2.32-.38.53-.53s.45-.22.72-.22c.22,0,.4.07.55.2.15.13.23.29.23.49s-.06.35-.17.47Z"/>
  <path class="cls-1" d="m29.43,4.14c-.09.1-.2.15-.33.15-.05,0-.13-.02-.23-.06-.1-.04-.22-.1-.34-.16-.13-.06-.25-.13-.38-.2-.13-.07-.25-.14-.35-.2l-.05.05c.13.2.24.39.33.56.09.17.14.4.14.68,0,.68-.24,1.2-.71,1.54-.48.34-1.14.51-1.98.51-.12,0-.25,0-.37-.03s-.27-.03-.45-.03c-.28.02-.5.08-.66.2s-.25.26-.25.43c0,.14.04.25.13.34.09.09.2.16.33.21.13.05.27.09.43.1.16.02.31.03.45.03h2.08c.3,0,.58.05.82.14.24.1.45.23.62.39.17.16.31.35.4.57.09.21.14.45.14.71,0,.34-.08.66-.25.97s-.41.58-.71.81c-.3.23-.66.42-1.07.55-.41.13-.86.2-1.36.2-.94,0-1.68-.14-2.2-.42-.52-.28-.79-.67-.79-1.16,0-.18.05-.35.15-.49s.23-.29.38-.42c.15-.13.32-.26.51-.38.19-.12.37-.23.55-.34v-.03c-.44-.05-.78-.18-1.02-.38-.24-.2-.36-.46-.36-.79,0-.17.04-.32.12-.47.08-.15.19-.28.33-.4s.3-.22.49-.31c.19-.08.39-.14.6-.16v-.04c-.38-.15-.68-.36-.89-.65-.21-.29-.32-.65-.32-1.09,0-.28.06-.54.19-.78.13-.24.3-.45.53-.63.23-.18.49-.32.8-.42.31-.1.64-.16,1.01-.16.33,0,.62.03.88.09.26.06.52.17.8.31.1.04.19.06.27.07.07,0,.16.01.27.01s.2-.02.28-.05c.08-.03.16-.06.23-.1s.14-.07.22-.1c.08-.03.17-.04.27-.04.15,0,.27.05.36.16.1.1.14.23.14.38,0,.13-.05.25-.14.34Zm-1.28,5.82c-.1-.18-.23-.31-.38-.38-.19-.09-.43-.16-.72-.2-.29-.04-.68-.06-1.18-.06-.18,0-.37,0-.56.03-.19.02-.35.03-.47.05-.41.1-.69.27-.84.49-.16.22-.23.47-.23.74s.08.52.23.73c.15.21.34.38.57.53.23.14.47.25.72.32s.49.1.71.1c.26,0,.48-.01.67-.04s.35-.07.5-.12c.3-.12.57-.32.8-.58.23-.27.34-.59.34-.96,0-.25-.05-.47-.16-.65Zm-1.08-5.64c-.06-.2-.15-.38-.27-.53-.12-.15-.26-.27-.44-.36s-.38-.14-.62-.14c-.22,0-.41.05-.58.15-.17.1-.32.23-.44.4-.12.17-.21.36-.27.58-.06.22-.09.44-.09.66,0,.52.13.94.4,1.25s.59.47.97.47c.23,0,.44-.05.62-.16.18-.1.33-.24.45-.42.12-.17.21-.37.27-.59.06-.22.09-.45.09-.7,0-.22-.03-.44-.09-.64Z"/>
  <path class="cls-1" d="m35.58,7.43c-.16.39-.39.74-.66,1.03-.28.29-.6.53-.97.69-.37.17-.76.25-1.16.25-.34,0-.69-.06-1.05-.18-.36-.12-.7-.31-1.01-.58-.31-.26-.56-.6-.75-1.01-.19-.41-.29-.89-.29-1.45,0-.4.08-.79.23-1.16.15-.37.36-.7.64-.99s.6-.52.99-.69c.39-.17.81-.26,1.28-.26.35,0,.7.07,1.05.2.35.13.68.32.97.58.29.26.53.58.72.96.19.39.28.84.28,1.36,0,.44-.08.86-.25,1.25Zm-1.06-2.22c-.06-.34-.17-.65-.32-.94s-.34-.52-.58-.71c-.24-.19-.54-.28-.9-.28-.29,0-.54.09-.77.26-.23.17-.42.4-.58.68-.16.28-.28.6-.36.95-.08.35-.12.71-.12,1.07,0,.4.03.78.1,1.13s.18.67.34.94c.16.27.36.49.6.65.24.16.53.24.87.24s.62-.1.85-.31c.23-.2.42-.46.56-.77s.25-.64.31-.99.1-.68.1-.99-.03-.61-.1-.95Z"/>
  <path class="cls-1" d="m40.22,4h-1.98v3.42c0,.44.1.76.29.96.19.2.44.3.74.3.25,0,.46-.04.62-.12.16-.08.31-.21.43-.38l.08.04c-.05.13-.12.27-.21.41-.09.14-.21.27-.36.39-.15.12-.33.21-.53.27-.2.06-.44.1-.72.1-.18,0-.36-.03-.52-.08s-.31-.14-.44-.25-.23-.23-.31-.36c-.08-.13-.12-.27-.12-.41,0-.81,0-1.59.01-2.32s.01-1.38.01-1.96h-.95v-.14l1.87-1.78h.1v1.13h2.4l-.4.79Z"/>
  <path class="cls-1" d="m3.8,14.57c-.04.12-.1.22-.17.31-.07.09-.15.16-.24.23-.09.06-.18.11-.26.14-.15.06-.32.09-.51.1-.19.01-.37.02-.55.02H0v-.06c.1-.02.2-.04.29-.08s.16-.09.22-.15c.02-.02.04-.06.05-.1.01-.05.02-.1.03-.16.01-.06.02-.12.02-.19,0-.07,0-.13,0-.19,0-.06,0-.13,0-.23s0-.2,0-.31c0-.11,0-.23,0-.35v-.93c0-.09,0-.18,0-.27,0-.09,0-.2,0-.32,0-.07,0-.15,0-.22,0-.07-.01-.14-.02-.21-.01-.07-.02-.13-.04-.18-.01-.05-.03-.09-.06-.12-.06-.06-.12-.11-.18-.13-.06-.02-.14-.04-.25-.05v-.06h2.02c.15,0,.3,0,.44.03.14.02.27.05.4.1.2.08.37.19.5.35.13.16.2.35.2.59,0,.26-.08.48-.25.64s-.39.27-.66.33v.02c.14.02.29.05.43.1.14.05.26.13.38.22.11.09.2.2.26.33s.1.27.1.43c0,.14-.02.27-.07.39Zm-1.02-2.99c-.1-.16-.23-.27-.38-.34-.18-.08-.41-.12-.69-.12-.08,0-.16,0-.23.01-.07,0-.12.02-.16.03,0,.02,0,.05-.01.07,0,.02,0,.04,0,.08,0,.03,0,.07,0,.11,0,.04,0,.1,0,.17,0,.14,0,.29,0,.46,0,.17,0,.33,0,.48v.58h.34c.09,0,.17,0,.22,0,.36-.02.63-.12.82-.31.19-.18.28-.41.28-.68,0-.2-.05-.38-.15-.53Zm.33,2.34c-.04-.1-.09-.2-.16-.28s-.14-.16-.23-.22c-.09-.06-.19-.11-.3-.15-.09-.03-.18-.05-.26-.06-.09,0-.19-.01-.3-.01h-.58v.75c0,.11,0,.21,0,.31,0,.09,0,.18,0,.24,0,.15.01.28.02.38,0,.1.04.18.09.24.04.04.09.08.16.11.07.03.18.04.31.04.12,0,.24,0,.38-.02.14-.02.27-.06.4-.13.17-.09.3-.21.39-.35.09-.15.14-.32.14-.53,0-.12-.02-.22-.06-.33Z"/>
  <path class="cls-1" d="m8.83,11.21c-.09.06-.15.14-.2.26-.01.03-.02.07-.03.14,0,.06-.02.14-.03.22,0,.08-.01.17-.02.27s0,.19,0,.28c0,.17,0,.36-.02.58s-.01.45-.02.72c0,.08,0,.17-.02.29,0,.12-.02.24-.06.37-.03.13-.08.26-.15.39s-.17.25-.3.35c-.13.11-.29.19-.49.25-.2.06-.45.09-.74.09s-.53-.03-.73-.09c-.2-.06-.36-.14-.49-.24-.13-.1-.23-.21-.3-.34s-.12-.24-.16-.36c-.03-.12-.05-.23-.06-.32s0-.17,0-.22c0-.11,0-.26,0-.44,0-.18,0-.38,0-.6v-1.01c0-.07,0-.14,0-.2,0-.06-.01-.12-.03-.17-.01-.05-.03-.09-.05-.12-.06-.07-.12-.12-.21-.15-.08-.03-.17-.05-.28-.06v-.06h1.79v.06c-.06,0-.12.02-.18.04-.06.02-.12.04-.17.07-.05.03-.1.08-.13.14-.04.06-.06.14-.06.23,0,.1,0,.2,0,.28s0,.16,0,.23v1.19c0,.09,0,.18,0,.27s0,.18,0,.27c0,.21.04.41.1.58s.14.32.25.44.24.22.4.28c.16.07.33.1.53.1.23,0,.42-.03.58-.08.16-.05.29-.12.4-.22.11-.09.19-.2.25-.32s.11-.25.14-.38c.03-.14.05-.28.06-.42.01-.14.02-.28.02-.42v-1.02c0-.08,0-.16,0-.25s0-.16,0-.24,0-.15-.02-.21c0-.07-.02-.12-.04-.16-.04-.11-.11-.2-.21-.27-.1-.07-.24-.12-.44-.15v-.06h1.49v.06c-.15.02-.26.06-.35.11Z"/>
  <path class="cls-1" d="m12.79,15.36s-.06-.06-.08-.08c-.02-.02-.03-.04-.05-.06-.02-.02-.04-.06-.07-.11-.03-.05-.08-.12-.14-.21-.08-.11-.14-.21-.2-.3s-.12-.18-.18-.27c-.06-.09-.12-.18-.2-.27-.07-.09-.15-.19-.25-.3-.08-.09-.17-.18-.26-.26-.09-.08-.19-.13-.3-.15-.08-.02-.13-.02-.17-.02-.04,0-.08,0-.14,0v.68c0,.19,0,.35,0,.49,0,.13,0,.24.01.33,0,.09.03.17.07.23.03.05.09.1.19.16.09.05.22.08.38.09v.06h-1.92v-.06c.1-.02.2-.04.29-.07.09-.03.16-.08.22-.14.02-.02.04-.06.05-.11.01-.05.02-.1.03-.16,0-.06.01-.12.01-.19,0-.07,0-.13,0-.2,0-.06,0-.13,0-.23s0-.2,0-.31c0-.11,0-.23,0-.35v-1.52c0-.07,0-.15,0-.22,0-.07,0-.14-.01-.21,0-.07-.02-.13-.03-.18s-.03-.09-.06-.12c-.06-.06-.13-.11-.2-.13-.07-.02-.17-.04-.27-.06v-.06h.25c.14,0,.29,0,.46,0,.17,0,.34,0,.52,0h.42c.27,0,.51,0,.71.02.21.02.4.07.57.16.18.09.32.22.43.38.11.16.16.36.16.6,0,.15-.03.28-.08.4-.05.12-.13.22-.22.31s-.19.17-.31.23c-.12.06-.25.12-.38.16v.02c.07.04.13.09.2.16.06.07.13.14.19.23.1.15.22.32.34.49.12.18.23.33.33.47.15.21.29.36.43.46s.3.16.49.19v.06h-1.23Zm-.59-3.74c-.1-.16-.25-.28-.44-.37-.1-.04-.2-.08-.3-.1-.11-.02-.22-.03-.33-.03-.08,0-.15,0-.2,0-.05,0-.09,0-.12.01,0,.02,0,.04-.01.06,0,.02,0,.04,0,.07s0,.07,0,.12c0,.05,0,.12,0,.21,0,.14,0,.3,0,.47,0,.18,0,.35,0,.51v.66c.16,0,.32,0,.46-.02.14-.01.28-.04.41-.09.13-.04.24-.09.33-.16.09-.07.17-.15.23-.23s.1-.18.13-.28c.03-.1.04-.2.04-.31,0-.2-.05-.38-.15-.53Z"/>
  <path class="cls-1" d="m18.31,14.06c-.12.27-.28.51-.49.71s-.45.35-.72.46c-.27.11-.57.16-.87.16s-.59-.05-.86-.16c-.27-.11-.51-.26-.71-.45s-.37-.43-.48-.7c-.12-.27-.18-.57-.18-.89,0-.34.06-.65.19-.93.12-.27.29-.51.5-.7.21-.19.46-.34.74-.44.28-.1.58-.15.89-.15.34,0,.64.06.91.18s.5.28.69.48.33.43.43.7c.1.26.15.54.15.83,0,.32-.06.62-.18.89Zm-.66-1.62c-.06-.25-.16-.47-.28-.67s-.28-.37-.47-.49-.41-.19-.67-.19-.48.06-.67.19c-.19.13-.35.29-.47.49-.12.2-.21.43-.27.68s-.09.51-.09.77c0,.27.03.53.1.79s.16.47.28.67c.13.19.28.35.47.46.19.12.41.17.66.17s.47-.06.66-.19c.19-.13.34-.29.47-.5s.22-.43.28-.68.09-.5.09-.76-.03-.49-.09-.74Z"/>
  <path class="cls-1" d="m23.38,11.21c-.09.06-.16.14-.21.26-.03.06-.05.17-.05.33,0,.16-.02.33-.02.52,0,.17-.02.38-.02.61,0,.23,0,.48,0,.75v.38c0,.14,0,.28,0,.43,0,.15,0,.29,0,.44v.39s0,.03-.02.04c-.01,0-.02.01-.04.01-.03,0-.07-.02-.11-.06-.34-.39-.65-.75-.93-1.08-.28-.33-.55-.64-.8-.94-.25-.3-.5-.59-.75-.87-.24-.28-.5-.58-.77-.88v2.53c0,.2,0,.39.01.55.01.16.04.29.08.37.04.09.11.16.21.21.09.05.22.08.39.1v.06h-1.48v-.06c.1-.01.19-.04.29-.08.1-.04.17-.1.23-.19.06-.08.09-.21.11-.37.02-.16.03-.36.04-.59,0-.17.01-.38.02-.61,0-.23,0-.49,0-.75v-.73c0-.08,0-.18,0-.29-.01-.12-.04-.21-.08-.29s-.1-.13-.16-.17c-.06-.04-.13-.07-.2-.09-.07-.02-.14-.03-.2-.04v-.06h1.22l2.84,3.32v-2.04c0-.16,0-.31,0-.46,0-.15-.02-.26-.05-.34-.04-.11-.11-.2-.21-.27-.1-.07-.25-.12-.44-.15v-.06h1.49v.06c-.15.02-.27.06-.36.11Z"/>
</svg>