<?xml version="1.0" encoding="utf-8"?>
<!-- Generator: $$$/GeneralStr/196=Adobe Illustrator 27.6.0, SVG Export Plug-In . SVG Version: 6.00 Build 0)  -->
<svg version="1.1" id="Calque_1" xmlns="http://www.w3.org/2000/svg" xmlns:xlink="http://www.w3.org/1999/xlink" x="0px" y="0px"
	 viewBox="0 0 1259.4 287" style="enable-background:new 0 0 1259.4 287;" xml:space="preserve">
<style type="text/css">
	.st0{fill:#E13CE5;}
</style>
<g>
	<g>
		<path class="st0" d="M7.8,243.5c-4.8,0-7.8-3-7.8-7.8V82.3c0-10.1,6.6-17.4,15.4-17.4c8.8,0,16.1,6.1,16.9,15.4l13.6,148.4h1
			L60.6,80.3c0.8-9.3,7.8-15.4,16.9-15.4c8.8,0,15.4,7.3,15.4,17.4v153.4c0,4.8-3,7.8-7.6,7.8c-4.8,0-7.8-3-7.8-7.8V80.3h-1.5
			L61.3,228.6c-0.8,8.1-6.6,15.4-14.9,15.4c-8.6,0-14.4-7.1-15.1-15.4L16.9,79.8h-1.5v155.9C15.4,240.5,12.4,243.5,7.8,243.5z"/>
		<path class="st0" d="M108.7,219.8v-16.1c0-12.9,4.5-20.7,17.9-29l16.4-10.3c11.4-7.1,11.4-10.6,11.4-20.2v-3
			c0-10.6-5.6-16.9-14.6-16.9c-9.1,0-14.6,5.5-14.6,15.1v11.6c0,4.8-3,7.8-7.8,7.8c-4.8,0-7.8-3-7.8-7.8v-11.1
			c0-18.7,11.4-29.8,30.5-29.8c18.9,0,30.3,11.1,30.3,29.8v97.4c0,4.8-3.3,7.8-8.1,7.8c-4.8,0-8.1-3-8.1-7.8v-13.6l-5,13.6
			c-4.3,4.3-10.3,7.8-17.4,7.8C117.3,245,108.7,235.9,108.7,219.8z M138.3,232.9c7.8,0,16.1-11.4,16.1-25.2v-36.8
			c-0.3,0.5-15.4,11.6-22,16.9c-5.5,4.5-7.6,9.1-7.6,17.2V219C124.9,227.9,131.4,232.9,138.3,232.9z"/>
		<path class="st0" d="M225,110.1c12.9,0.3,19.7,9.1,19.7,26v16.7c0,4.3-3.3,7.8-7.8,7.8c-4.5,0-7.8-3.5-7.8-7.8V136
			c0-7.8-3.8-11.9-10.8-11.9c-8.3,0-13.4,6.8-13.4,23.5v88.1c0,4.8-3.3,7.8-8.1,7.8s-8.1-3-8.1-7.8V117.6c0-3.3,2.3-6.1,5.6-6.8
			c5.6-1.5,10.6,2.3,10.6,8.1v10.3l4-10.3C210.9,114.8,216,109.8,225,110.1z"/>
		<path class="st0" d="M256.1,218.5V136c0-15.9,10.8-26,24.7-26c8.6,0,12.6,2.5,16.9,8.8l4,9.1v-10.3c0-3.3,2.3-6.1,5.5-6.8
			c5.6-1.5,10.6,2.3,10.6,8.1V245c0,20.4-10.8,31.3-29.8,31.3h-16.9c-5.6,0-7.8-3-7.8-7.8c0-4.5,2.3-7.6,7.8-7.6h15.6
			c9.1,0,14.9-6.6,14.9-17.4v-18.2l-4,10.3c-4.3,6.3-8.3,8.8-16.9,8.8C266.9,244.5,256.1,234.4,256.1,218.5z M286.9,230.4
			c8.6,0,14.9-7.1,14.9-18.4v-69.4c0-11.4-6.3-18.4-14.9-18.4c-9.3,0-14.6,6.6-14.6,17.4V213C272.2,223.8,277.5,230.4,286.9,230.4z"
			/>
		<path class="st0" d="M335.5,212.5v-69.6c0-20.7,11.9-32.8,31-32.8s31,12.1,31,32.8v69.6c0,20.4-12.1,32.5-31,32.5
			C347.7,245,335.5,232.9,335.5,212.5z M366.6,230.9c9.1,0,14.9-6.6,14.9-17.4v-71.7c0-11.1-5.8-17.7-14.9-17.7
			c-9.3,0-14.9,6.6-14.9,17.7v71.7C351.7,224.3,357.2,230.9,366.6,230.9z"/>
		<path class="st0" d="M422.3,218.5v-92.1h-10.8c-3.8,0-6.8-3-6.8-7.1s3-7.1,6.8-7.1h10.8V86.1c0-3.3,2.3-6.1,5.6-6.8
			c5.6-1.5,10.6,2.3,10.6,8.1v25h15.1c3.8,0,6.8,3,6.8,7.1s-3,7.1-6.8,7.1h-15.1v90.8c0,8.1,4,11.9,10.6,11.9h4.3
			c3.8,0,6.8,3,6.8,7.1c0,4-3,7.1-6.8,7.1H446C429.9,243.3,422.3,235.4,422.3,218.5z"/>
		<path class="st0" d="M545.7,242.5h-18.2c-8.3,0-14.4-6.1-14.4-14.4V80.3c0-8.3,6.1-14.4,14.4-14.4h16.9
			c18.7,0,30.8,10.3,30.8,32.5v24.5c0,14.6-4,23.2-15.6,27.5c13.1,4,17.9,13.1,17.9,27.8v29.3C577.5,229.4,565.6,242.5,545.7,242.5z
			 M543.4,144.9c10.1,0,15.6-6.6,15.6-17.7v-30c0-11.4-6.3-15.9-15.6-15.9h-14.1v63.6H543.4z M545.7,227.1c9.6,0,15.4-6.6,15.4-17.9
			v-32.8c0-11.1-5.3-17.7-15.4-17.7h-16.4v68.4H545.7z"/>
		<path class="st0" d="M592.6,219V117.9c0-3.3,2.3-6.1,5.6-6.8c5.5-1.5,10.6,2.3,10.6,8.1v94.6c0,10.8,5.3,17.2,14.6,17.2
			c8.3,0,14.6-6.8,14.6-18.4v-94.6c0-3.3,2.3-6.1,5.6-6.8c5.5-1.5,10.6,2.3,10.6,8.1v116.6c0,4.8-3.3,7.8-8.1,7.8
			c-4.8,0-8.1-3-8.1-7.8v-9.8l-4,10.3c-4.3,6.3-9.6,8.8-18.7,8.8C601.2,245,592.6,234.9,592.6,219z"/>
		<path class="st0" d="M709.4,110.1c12.9,0.3,19.7,9.1,19.7,26v16.7c0,4.3-3.3,7.8-7.8,7.8c-4.5,0-7.8-3.5-7.8-7.8V136
			c0-7.8-3.8-11.9-10.8-11.9c-8.3,0-13.4,6.8-13.4,23.5v88.1c0,4.8-3.3,7.8-8.1,7.8s-8.1-3-8.1-7.8V117.6c0-3.3,2.3-6.1,5.5-6.8
			c5.6-1.5,10.6,2.3,10.6,8.1v10.3l4-10.3C695.3,114.8,700.4,109.8,709.4,110.1z"/>
		<path class="st0" d="M740.5,212.5v-69.6c0-20.7,11.9-32.8,31-32.8s31,12.1,31,32.8v69.6c0,20.4-12.1,32.5-31,32.5
			C752.6,245,740.5,232.9,740.5,212.5z M771.5,230.9c9.1,0,14.9-6.6,14.9-17.4v-71.7c0-11.1-5.8-17.7-14.9-17.7
			c-9.3,0-14.9,6.6-14.9,17.7v71.7C756.6,224.3,762.2,230.9,771.5,230.9z"/>
		<path class="st0" d="M859,110.1c14.1,0,22.7,10.1,22.7,26v99.7c0,4.8-3.3,7.8-8.1,7.8s-8.1-3-8.1-7.8v-94.4
			c0-10.8-5.3-17.2-14.6-17.2c-8.3,0-14.6,6.8-14.6,18.4v93.1c0,4.8-3.3,7.8-8.1,7.8s-8.1-3-8.1-7.8V117.6c0-3.3,2.3-6.1,5.5-6.8
			c5.6-1.5,10.6,2.3,10.6,8.1v10.3l4-10.3C844.7,112.6,850,110.1,859,110.1z"/>
	</g>
	<path class="st0" d="M1056.2,137.1c-60.5-34.1-85.6-21.5-84.6-63.1s59.1,3.7,59.1,3.7s1.3-67,39.4-41.6S1056.2,137.1,1056.2,137.1z
		"/>
	<path class="st0" d="M1154.1,106.2c4.7-69.3-17.6-86.5,20.4-103.6s22.2,54.9,22.2,54.9s61.1-27.7,54.5,17.6
		S1154.1,106.2,1154.1,106.2z"/>
	<path class="st0" d="M1061.3,158.6c60.5,34.1,85.6,21.5,84.6,63.1s-59.1-3.7-59.1-3.7s-1.3,67-39.4,41.6
		C1009.4,234.1,1061.3,158.6,1061.3,158.6z"/>
	<path class="st0" d="M1046.2,151c-32.6,61.3-19.3,86.1-61,86.2c-41.7,0.1,2.2-59.1,2.2-59.1s-67.1,0.3-42.5-38.3
		S1046.2,151,1046.2,151z"/>
</g>
</svg>
